<?xml version="1.0" encoding="UTF-8"?>
<svg width="105px" height="105px" viewBox="0 0 105 105" version="1.1" xmlns="http://www.w3.org/2000/svg" xmlns:xlink="http://www.w3.org/1999/xlink">
    <!-- Generator: Sketch 46.2 (44496) - http://www.bohemiancoding.com/sketch -->
    <title>logo2</title>
    <desc>Created with Sketch.</desc>
    <defs>
        <linearGradient x1="60.031237%" y1="107.924165%" x2="45.2553905%" y2="-12.829364%" id="linearGradient-1">
            <stop stop-color="#3ECF8E" offset="0%"></stop>
            <stop stop-color="#1FA2FF" offset="0%"></stop>
            <stop stop-color="#5533FF" offset="100%"></stop>
        </linearGradient>
        <linearGradient x1="61.6340359%" y1="109.352084%" x2="45.8975466%" y2="-3.75894349%" id="linearGradient-2">
            <stop stop-color="#36D45E" offset="0%"></stop>
            <stop stop-color="#3AD562" offset="17.25%"></stop>
            <stop stop-color="#47D96E" offset="35.39%"></stop>
            <stop stop-color="#5CDF82" offset="53.93%"></stop>
            <stop stop-color="#79E79E" offset="72.75%"></stop>
            <stop stop-color="#9FF2C2" offset="91.61%"></stop>
            <stop stop-color="#B2F7D4" offset="100%"></stop>
        </linearGradient>
        <linearGradient x1="103.850409%" y1="38.0773697%" x2="-3.09646572%" y2="54.2001049%" id="linearGradient-3">
            <stop stop-color="#3ECF8E" offset="0%"></stop>
            <stop stop-color="#3ECD8F" offset="39.18%"></stop>
            <stop stop-color="#3FC694" offset="54.23%"></stop>
            <stop stop-color="#41BA9D" offset="65.13%"></stop>
            <stop stop-color="#44A9AA" offset="74.03%"></stop>
            <stop stop-color="#4792BA" offset="81.7%"></stop>
            <stop stop-color="#4B77CE" offset="88.53%"></stop>
            <stop stop-color="#5057E5" offset="94.59%"></stop>
            <stop stop-color="#5533FF" offset="100%"></stop>
        </linearGradient>
        <linearGradient x1="103.537987%" y1="38.6095388%" x2="-29.0920792%" y2="80.8109032%" id="linearGradient-4">
            <stop stop-color="#3ECF8E" offset="0%"></stop>
            <stop stop-color="#3ECD8F" offset="39.18%"></stop>
            <stop stop-color="#3FC694" offset="54.23%"></stop>
            <stop stop-color="#41BA9D" offset="65.13%"></stop>
            <stop stop-color="#44A9AA" offset="74.03%"></stop>
            <stop stop-color="#4792BA" offset="81.7%"></stop>
            <stop stop-color="#4B77CE" offset="88.53%"></stop>
            <stop stop-color="#5057E5" offset="94.59%"></stop>
            <stop stop-color="#5533FF" offset="100%"></stop>
        </linearGradient>
        <linearGradient x1="-3.31453757%" y1="59.2443003%" x2="112.83263%" y2="27.7801365%" id="linearGradient-5">
            <stop stop-color="#1F50FF" offset="0%"></stop>
            <stop stop-color="#1583FF" offset="41.58%"></stop>
            <stop stop-color="#07D0FF" offset="100%"></stop>
        </linearGradient>
        <linearGradient x1="-198.033294%" y1="62.5876832%" x2="108.298196%" y2="46.5043266%" id="linearGradient-6">
            <stop stop-color="#1F50FF" offset="0%"></stop>
            <stop stop-color="#1583FF" offset="41.58%"></stop>
            <stop stop-color="#07D0FF" offset="100%"></stop>
        </linearGradient>
        <linearGradient x1="0.333332131%" y1="27.0435803%" x2="87.745539%" y2="78.1925926%" id="linearGradient-7">
            <stop stop-color="#3ECF8E" offset="0%"></stop>
            <stop stop-color="#1FA2FF" offset="0%"></stop>
            <stop stop-color="#5533FF" offset="100%"></stop>
        </linearGradient>
        <linearGradient x1="24.6244061%" y1="85.8919028%" x2="82.948573%" y2="-76.4100454%" id="linearGradient-8">
            <stop stop-color="#3ECF8E" offset="0%"></stop>
            <stop stop-color="#1FA2FF" offset="0%"></stop>
            <stop stop-color="#5533FF" offset="68.4%"></stop>
        </linearGradient>
        <linearGradient x1="2.11262858%" y1="63.6196467%" x2="92.5433644%" y2="9.84361889%" id="linearGradient-9">
            <stop stop-color="#1F50FF" offset="0%"></stop>
            <stop stop-color="#2A7BD9" offset="11.3%"></stop>
            <stop stop-color="#329FB8" offset="22.75%"></stop>
            <stop stop-color="#39BAA1" offset="33.47%"></stop>
            <stop stop-color="#3DC993" offset="43.05%"></stop>
            <stop stop-color="#3ECF8E" offset="50.56%"></stop>
            <stop stop-color="#25CFC1" offset="73.68%"></stop>
            <stop stop-color="#07D0FF" offset="100%"></stop>
        </linearGradient>
        <linearGradient x1="2.91693925%" y1="16.3706387%" x2="109.892056%" y2="104.23176%" id="linearGradient-10">
            <stop stop-color="#36D45E" offset="0%"></stop>
            <stop stop-color="#3AD562" offset="17.25%"></stop>
            <stop stop-color="#47D96E" offset="35.39%"></stop>
            <stop stop-color="#5CDF82" offset="53.93%"></stop>
            <stop stop-color="#79E79E" offset="72.75%"></stop>
            <stop stop-color="#9FF2C2" offset="91.61%"></stop>
            <stop stop-color="#B2F7D4" offset="100%"></stop>
        </linearGradient>
        <linearGradient x1="55.0517498%" y1="115.650563%" x2="41.1951717%" y2="-4.17865272%" id="linearGradient-11">
            <stop stop-color="#3ECF8E" offset="0%"></stop>
            <stop stop-color="#1FA2FF" offset="0%"></stop>
            <stop stop-color="#5533FF" offset="100%"></stop>
        </linearGradient>
    </defs>
    <g id="Page-1" stroke="none" stroke-width="1" fill="none" fill-rule="evenodd">
        <g id="stuff" transform="translate(-649.000000, -126.000000)" fill-rule="nonzero">
            <g id="app" transform="translate(622.000000, 100.000000)">
                <g id="logo2" transform="translate(27.000000, 26.000000)">
                    <path d="M102.909836,37.9180328 C84.442623,10.1557377 53.7540984,5.55737705 33.8114754,17.3852459 C40.0327869,14.1393443 47.2131148,12.4918033 54.8114754,12.9590164 C68.704918,13.8442623 80.7540984,21.9836066 87.147541,33.6147541 C87.0737705,33.4180328 87.0245902,33.2213115 86.9508197,33.0245902 C94.6967213,43.9918033 102.196721,74.1885246 79.352459,97.5983607 C94.6967213,88.4508197 104.97541,71.704918 104.97541,52.5491803 C104.97541,47.4590164 104.262295,42.5655738 102.909836,37.9180328 Z" id="Shape" fill="url(#linearGradient-1)"></path>
                    <path d="M102.909836,37.9180328 C84.442623,10.1557377 53.7540984,5.55737705 33.8114754,17.3852459 C40.0327869,14.1393443 47.2131148,12.4918033 54.8114754,12.9590164 C68.704918,13.8442623 80.7540984,21.9836066 87.147541,33.6147541 C87.0737705,33.4180328 87.0245902,33.2213115 86.9508197,33.0245902 C94.6967213,43.9918033 102.196721,74.1885246 79.352459,97.5983607 C94.6967213,88.4508197 104.97541,71.704918 104.97541,52.5491803 C104.97541,47.4590164 104.262295,42.5655738 102.909836,37.9180328 Z" id="Shape" fill="url(#linearGradient-2)"></path>
                    <path d="M52.5737705,0.12295082 C42.9344262,0.12295082 33.9098361,2.7295082 26.1393443,7.27868852 C3.86065574,29.4344262 9.29508197,57.9590164 16.5491803,70.4262295 C14.2377049,65.8032787 12.7868852,60.6885246 12.4672131,55.3032787 C11.4836066,39.8606557 19.3278689,26.1639344 31.4262295,18.7377049 C30.442623,19.0327869 29.4344262,19.3278689 28.4016393,19.6721311 C39.6885246,11.704918 71.4590164,2.1147541 95.0901639,27.4180328 C96.442623,27.4918033 99.6393443,31.204918 102.614754,37.0081967 C96,15.6393443 76.1065574,0.12295082 52.5737705,0.12295082 Z" id="Shape" fill="url(#linearGradient-3)"></path>
                    <path d="M95.0901639,27.4180328 C71.4344262,2.1147541 39.6639344,11.704918 28.4016393,19.6721311 C29.4098361,19.3278689 30.4180328,19.0327869 31.4262295,18.7377049 C32.2131148,18.2704918 33,17.8032787 33.8114754,17.3852459 C53.7540984,5.55737705 84.442623,10.1557377 102.909836,37.9180328 C102.811475,37.5983607 102.737705,37.3032787 102.639344,36.9836066 C99.6393443,31.204918 96.442623,27.4918033 95.0901639,27.4180328 Z" id="Shape" fill="url(#linearGradient-4)"></path>
                    <path d="M87.8852459,70.4754098 C85.1065574,76.057377 81.0245902,80.9016393 76.0819672,84.6393443 C56.9262295,100.42623 23.0163934,97.942623 2.80327869,68.9262295 C9.68852459,89.852459 29.3606557,104.95082 52.5983607,104.95082 C56.8032787,104.95082 60.9098361,104.459016 64.8442623,103.5 L62.4098361,103.327869 C76.2295082,94.352459 84.4672131,82.5245902 87.8852459,70.4754098 Z" id="Shape" fill="url(#linearGradient-5)"></path>
                    <path d="M86.9508197,33.0245902 C87.0245902,33.2213115 87.0737705,33.4180328 87.147541,33.6147541 C89.9016393,38.5819672 91.5983607,44.1885246 91.9672131,50.1393443 C92.4344262,57.4672131 90.9098361,64.4262295 87.8852459,70.4754098 C84.4672131,82.5245902 76.2295082,94.352459 62.3606557,103.327869 L64.795082,103.5 C69.9836066,102.270492 74.8770492,100.254098 79.3278689,97.5983607 C102.196721,74.1885246 94.6967213,43.9672131 86.9508197,33.0245902 Z" id="Shape" fill="url(#linearGradient-6)"></path>
                    <path d="M65.557377,60.147541 C65.1639344,60.5409836 65.0163934,60.8852459 65.0163934,60.8852459 L64.9918033,60.8852459 C62.3852459,65.1639344 57.6885246,68.0163934 52.3032787,68.0163934 C49.4508197,68.0163934 46.795082,67.204918 44.5081967,65.8278689 C44.6065574,65.9262295 44.704918,66.0245902 44.8278689,66.1229508 C34.647541,62.6065574 25.0081967,42.6393443 39.442623,24.2213115 C29.0409836,28.9180328 21.5409836,39.0983607 20.8032787,51 C20.6311475,53.8770492 20.8278689,56.6557377 21.3688525,59.3360656 C33.7622951,83.1393443 60.7131148,76.6721311 65.557377,60.147541 Z" id="Shape" fill="url(#linearGradient-7)"></path>
                    <path d="M80.7540984,59.1885246 L70.5,58.647541 L70.3032787,58.647541 C67.6229508,58.5737705 66.2213115,59.4590164 65.557377,60.1229508 C60.7131148,76.6721311 33.7622951,83.1393443 21.3934426,59.2868852 C24.3196721,73.6967213 37.057377,84.5163934 52.3032787,84.5163934 C66.8114754,84.5163934 79.0081967,74.7295082 82.6967213,61.4262295 C82.8196721,60.7377049 82.6967213,59.557377 80.7540984,59.1885246 Z" id="Shape" fill="url(#linearGradient-8)"></path>
                    <path d="M44.8278689,66.0983607 C44.7295082,66 44.6065574,65.9016393 44.5081967,65.8032787 C39.8114754,62.9016393 36.8360656,57.4672131 37.5,51.4180328 C37.8196721,48.6393443 38.9262295,46.057377 40.5737705,43.942623 C40.5245902,43.9918033 40.4754098,44.0409836 40.4262295,44.0901639 C46.1557377,34.4262295 66.9098361,29.2131148 82.5491803,45.9836066 C82.9180328,45.5163934 82.8196721,44.9754098 82.7459016,44.6803279 L82.7459016,44.6311475 C78.9836066,30.8360656 66.0983607,20.8032787 50.9508197,21.442623 C46.8934426,21.6147541 42.9836066,22.5737705 39.442623,24.1721311 C25.0081967,42.6147541 34.647541,62.5819672 44.8278689,66.0983607 Z" id="Shape" fill="url(#linearGradient-9)"></path>
                    <path d="M40.4262295,44.0901639 C40.4754098,44.0409836 40.5245902,43.9918033 40.5737705,43.942623 C43.0081967,40.8442623 46.6721311,38.704918 50.7540984,38.3114754 C56.9262295,37.6967213 62.4344262,40.8688525 65.2131148,45.7868852 C65.7295082,46.5 67.1065574,47.8032787 70.2295082,47.704918 L70.4016393,47.704918 L81.1967213,46.6967213 C81.8852459,46.5491803 82.2786885,46.2786885 82.5245902,46.0081967 C66.9344262,29.2131148 46.1557377,34.4262295 40.4262295,44.0901639 Z" id="Shape" fill="url(#linearGradient-10)"></path>
                    <path d="M49.6229508,92.4836066 C35.1885246,91.5737705 22.7459016,82.795082 16.5491803,70.4262295 C9.29508197,57.9590164 3.86065574,29.4344262 26.1393443,7.27868852 C10.5983607,16.3770492 0.172131148,33.2459016 0.172131148,52.5245902 C0.172131148,58.2295082 1.08196721,63.7377049 2.77868852,68.9016393 C22.9918033,97.9180328 56.9016393,100.401639 76.057377,84.6147541 C68.7786885,90.0737705 59.557377,93.0983607 49.6229508,92.4836066 Z" id="Shape" fill="url(#linearGradient-11)"></path>
                </g>
            </g>
        </g>
    </g>
</svg>